Coordinates
version=1
nRows=6
nColumns=63
inDegrees=yes

Units are S.I. units (second, meters, Newtons, ...)
If the header above contains a line with 'inDegrees', this indicates whether rotational values are in degrees (yes) or radians (no).

endheader
time	pelvis_tilt	pelvis_list	pelvis_rotation	pelvis_tx	pelvis_ty	pelvis_tz	hip_flexion_r	hip_adduction_r	hip_rotation_r	knee_angle_r	knee_angle_r_beta	ankle_angle_r	subtalar_angle_r	mtp_angle_r	hip_flexion_l	hip_adduction_l	hip_rotation_l	knee_angle_l	knee_angle_l_beta	ankle_angle_l	subtalar_angle_l	mtp_angle_l	L5_S1_Flex_Ext	L5_S1_Lat_Bending	L5_S1_axial_rotation	L4_L5_Flex_Ext	L4_L5_Lat_Bending	L4_L5_axial_rotation	L3_L4_Flex_Ext	L3_L4_Lat_Bending	L3_L4_axial_rotation	L2_L3_Flex_Ext	L2_L3_Lat_Bending	L2_L3_axial_rotation	L1_L2_Flex_Ext	L1_L2_Lat_Bending	L1_L2_axial_rotation	L1_T12_Flex_Ext	L1_T12_Lat_Bending	L1_T12_axial_rotation	Abs_r3	Abs_r2	Abs_r1	Abs_t1	Abs_t2	neck_flexion	neck_bending	neck_rotation	arm_flex_r	arm_add_r	arm_rot_r	elbow_flex_r	pro_sup_r	wrist_flex_r	wrist_dev_r	arm_flex_l	arm_add_l	arm_rot_l	elbow_flex_l	pro_sup_l	wrist_flex_l	wrist_dev_l
1.033898	5.946959	-2.692519	94.107512	0.279104	1.134606	0.134354	-4.586521	3.557707	-10.255976	15.653639	0.273208	29.756981	-6.484127	0.000000	-7.204423	-7.682945	-4.281402	12.702208	0.221695	41.452688	7.249834	0.000000	-0.232048	0.715384	-1.080647	-0.430936	0.951461	-1.148187	-0.381231	1.739385	-1.148187	-0.265207	1.739385	-0.945566	-0.215480	1.458811	-0.878025	-0.132592	1.108130	-0.810485	-1.657494	8.092566	-6.010233	0.000000	0.000000	-8.710267	-0.591379	6.779931	57.076894	-20.694203	8.403951	142.127746	86.643162	7.443775	24.625609	57.860538	-31.427367	0.985082	146.304990	88.916796	13.146855	28.785041
1.050847	6.042142	-2.611155	94.182860	0.278989	1.134872	0.134081	-4.701111	3.716342	-10.183029	15.624614	0.272701	29.722748	-6.506185	0.000000	-7.284003	-7.741373	-3.800211	12.868188	0.224592	41.051940	6.396855	0.000000	-0.241242	0.742126	-1.246557	-0.448010	0.987028	-1.324467	-0.396336	1.804406	-1.324467	-0.275715	1.804406	-1.090737	-0.224017	1.513344	-1.012827	-0.137846	1.149554	-0.934918	-1.723165	8.395082	-6.932975	0.000000	0.000000	-9.415402	-0.505399	8.170034	58.715250	-19.314897	10.425983	141.387406	87.446025	8.836632	25.847526	57.899922	-31.515539	0.339322	147.115108	88.927053	13.661426	29.399183
1.067797	6.158247	-2.527143	94.229812	0.278781	1.135120	0.133859	-4.798441	3.880937	-10.109212	15.606519	0.272385	29.700098	-6.545504	0.000000	-7.371297	-7.805380	-3.249196	13.025672	0.227341	40.653979	5.438018	0.000000	-0.248799	0.768931	-1.357998	-0.462044	1.022679	-1.442873	-0.408751	1.869580	-1.442873	-0.284352	1.869580	-1.188248	-0.231034	1.568005	-1.103373	-0.142164	1.191075	-1.018498	-1.777144	8.698305	-7.552776	0.000000	0.000000	-9.892667	-0.409340	8.992605	59.607858	-18.234715	11.745744	140.814345	88.133005	9.962802	26.889744	57.668131	-31.327624	0.168408	147.679321	88.919219	13.527150	29.736121
1.084746	6.297443	-2.424612	94.245019	0.278478	1.135404	0.133712	-4.892999	4.060290	-9.983163	15.590416	0.272104	29.671393	-6.690236	0.000000	-7.475890	-7.878002	-2.633049	13.169567	0.229852	40.283885	4.402390	0.000000	-0.256911	0.795818	-1.406816	-0.477109	1.058438	-1.494742	-0.422079	1.934952	-1.494742	-0.293623	1.934952	-1.230964	-0.238567	1.622832	-1.143038	-0.146799	1.232722	-1.055112	-1.835088	9.002454	-7.824291	0.000000	0.000000	-10.181110	-0.279278	9.177090	59.769210	-17.485555	12.337830	140.473958	88.629245	10.811232	27.743463	57.289988	-30.803917	0.547271	147.935288	88.904701	12.816762	29.795007
1.101695	6.428157	-2.300343	94.211089	0.278137	1.135744	0.133648	-4.988938	4.208168	-9.891035	15.580304	0.271928	29.670013	-6.817215	0.000000	-7.606416	-7.931763	-2.026049	13.281838	0.231812	39.967437	3.397266	0.000000	-0.267176	0.818190	-1.391955	-0.496172	1.088193	-1.478952	-0.438943	1.989347	-1.478952	-0.305355	1.989347	-1.217961	-0.248099	1.668453	-1.130964	-0.152664	1.267377	-1.043966	-1.908409	9.255530	-7.741637	0.000000	0.000000	-10.330124	-0.055194	8.696592	59.288010	-17.055463	12.313473	140.411079	88.897492	11.307475	28.410782	56.855224	-29.974420	1.514039	147.859322	88.902184	11.565980	29.428005
1.118644	6.545126	-2.161544	94.139886	0.277776	1.136137	0.133662	-5.084438	4.324302	-9.823511	15.567908	0.271711	29.674044	-6.972484	0.000000	-7.745510	-7.972437	-1.486903	13.368525	0.233325	39.734369	2.536144	0.000000	-0.279572	0.838560	-1.343096	-0.519194	1.115285	-1.427039	-0.459309	2.038874	-1.427039	-0.319523	2.038874	-1.175209	-0.259611	1.709991	-1.091265	-0.159748	1.298929	-1.007322	-1.996956	9.485956	-7.469896	0.000000	0.000000	-10.405644	0.234602	7.926569	58.466745	-16.771876	12.059303	140.569667	88.977026	11.452023	29.006559	56.293717	-28.995630	2.839036	147.593754	88.920009	9.938887	28.686350
